HIERARCHY
ROOT joint_0
{
	OFFSET 0.000000 0.000000 0.000000
	CHANNELS 6 Xposition Yposition Zposition Zrotation Yrotation Xrotation 
	JOINT joint_1
	{
		OFFSET 0.000000 0.000000 0.000000
		CHANNELS 3 Zrotation Yrotation Xrotation
		JOINT joint_2
		{
			OFFSET 3.811170 -8.520760 0.839290
			CHANNELS 3 Zrotation Yrotation Xrotation
			JOINT joint_3
			{
				OFFSET 2.562200 -7.039590 0.000000
				CHANNELS 3 Zrotation Yrotation Xrotation
				JOINT joint_4
				{
					OFFSET 0.157640 -0.433110 2.322550
					CHANNELS 3 Zrotation Yrotation Xrotation
					End Site
					{
						OFFSET 0.000000 0.000000 0.000000
					}
				}
			}
		}
	}
	JOINT joint_5
	{
		OFFSET 0.000000 0.000000 0.000000
		CHANNELS 3 Zrotation Yrotation Xrotation
		JOINT joint_6
		{
			OFFSET -3.848050 -8.780180 0.839290
			CHANNELS 3 Zrotation Yrotation Xrotation
			JOINT joint_7
			{
				OFFSET -2.568260 -7.056230 0.000000
				CHANNELS 3 Zrotation Yrotation Xrotation
				JOINT joint_8
				{
					OFFSET -0.164730 -0.452590 2.363150
					CHANNELS 3 Zrotation Yrotation Xrotation
					End Site
					{
						OFFSET 0.000000 0.000000 0.000000
					}
				}
			}
		}
	}
	JOINT joint_9
	{
		OFFSET 0.028270 2.035590 -0.193380
		CHANNELS 3 Zrotation Yrotation Xrotation
		JOINT joint_10
		{
			OFFSET 0.056720 2.048850 -0.042750
			CHANNELS 3 Zrotation Yrotation Xrotation
			JOINT joint_11
			{
				OFFSET -0.054170 1.746240 0.172020
				CHANNELS 3 Zrotation Yrotation Xrotation
				JOINT joint_12
				{
					OFFSET 0.104070 1.761360 -0.123970
					CHANNELS 3 Zrotation Yrotation Xrotation
					End Site
					{
						OFFSET 0.000000 0.000000 0.000000
					}
				}
			}
			JOINT joint_13
			{
				OFFSET 3.362410 1.200890 -0.311210
				CHANNELS 3 Zrotation Yrotation Xrotation
				JOINT joint_14
				{
					OFFSET 4.983000 -0.000000 -0.000000
					CHANNELS 3 Zrotation Yrotation Xrotation
					JOINT joint_15
					{
						OFFSET 3.483560 -0.000000 -0.000000
						CHANNELS 3 Zrotation Yrotation Xrotation
						JOINT joint_16
						{
							OFFSET 0.715260 -0.000000 -0.000000
							CHANNELS 3 Zrotation Yrotation Xrotation
							End Site
							{
								OFFSET 0.000000 0.000000 0.000000
							}
						}
					}
				}
			}
			JOINT joint_17
			{
				OFFSET -3.136600 1.374050 -0.404650
				CHANNELS 3 Zrotation Yrotation Xrotation
				JOINT joint_18
				{
					OFFSET -5.241900 -0.000000 -0.000000
					CHANNELS 3 Zrotation Yrotation Xrotation
					JOINT joint_19
					{
						OFFSET -3.444170 -0.000000 -0.000000
						CHANNELS 3 Zrotation Yrotation Xrotation
						JOINT joint_20
						{
							OFFSET -0.622530 -0.000000 -0.000000
							CHANNELS 3 Zrotation Yrotation Xrotation
							End Site
							{
								OFFSET 0.000000 0.000000 0.000000
							}
						}
					}
				}
			}
		}
	}
}
MOTION
Frames: 7
Frame Time: 0.031667
4.847296 15.567984 -2.364512 -5.013435 -25.555210 3.808602 -6.582479 15.229256 -26.936354 -5.138648 11.322367 27.836967 -6.135975 5.007794 -5.993546 0.441263 -1.603940 -4.483136 8.292774 -5.889407 1.810963 9.876133 -12.862050 24.408878 2.046647 -3.943942 -14.114683 -0.534895 -1.321407 3.791124 0.537537 0.323141 -3.139601 -1.717677 -1.453653 -10.078432 3.765805 0.719528 3.451386 -0.345166 -0.578801 3.006388 -48.998302 -29.934452 17.963534 56.501828 -54.283297 -24.312970 -0.081859 -1.579544 8.500713 -7.137862 -0.007979 -0.015332 85.384618 24.145380 33.325897 -63.326932 51.624260 -30.454809 0.268593 0.771128 5.865034 7.147054 -0.009974 0.014142 
4.817107 15.564921 -2.375835 -4.960369 -25.233309 3.832239 -6.281777 19.176960 -29.460580 -7.677175 13.138697 26.837236 -3.202934 4.483358 -8.522922 0.573808 -1.367514 -3.899148 6.207089 -9.685652 4.408176 13.193064 -11.476491 23.641528 2.845394 -3.590964 -13.237246 -0.610690 -1.340672 4.029559 1.630235 0.372420 -2.955930 -0.078588 -0.534976 -7.746250 -1.311383 1.175984 1.337041 -0.569135 -0.475934 2.807652 -51.126616 -33.958375 11.969397 58.823051 -58.135326 -23.762426 -0.331555 -0.845310 4.454368 -7.137169 -0.008130 -0.019038 87.108660 26.808363 35.167664 -65.677924 54.438629 -30.232067 1.095669 -0.265316 -0.001487 7.152543 -0.013711 0.014029 
4.786918 15.561857 -2.387158 -4.907456 -24.911741 3.856510 -7.253243 22.082239 -27.915104 -8.103838 12.527605 25.517428 -3.364380 4.533356 -10.975699 0.740401 -0.649707 -1.885538 2.686989 -10.554800 5.983880 16.704001 -12.624981 23.255807 2.129508 -3.708968 -13.607549 -0.076060 -0.568771 1.471872 -0.587923 1.427567 -2.452638 -1.107917 -0.375891 -8.649605 1.885992 2.349125 1.139092 -0.890261 -0.724223 2.192805 -47.575198 -34.328954 9.010508 61.032118 -58.707921 -22.877708 -0.628155 -0.809468 2.948169 -7.137160 -0.006739 -0.020358 88.687684 28.578176 32.925391 -66.059185 54.843970 -30.144487 -0.118316 -0.569254 0.333609 7.151137 -0.014128 0.015483 
4.756367 15.558990 -2.397638 -4.866138 -24.549143 3.883723 -6.386390 23.309412 -27.959038 -9.895293 12.938146 24.827567 -1.925717 3.163641 -12.728908 1.010009 0.008312 -0.015562 0.095135 -12.168356 7.161032 18.005758 -12.321345 21.674275 1.594877 -3.656405 -10.309939 0.372200 -0.320185 0.519691 -0.389440 1.734674 -3.032739 0.005264 -0.742591 -9.313943 1.262119 1.250297 -0.918698 -1.549644 -0.900565 1.501278 -36.929740 -34.415660 2.360998 61.662374 -58.959532 -22.116375 -0.617664 0.087401 1.549597 -7.140435 -0.005215 -0.018483 88.564194 27.377995 33.707609 -66.038510 54.422070 -28.601928 1.426451 -0.160630 -0.235228 7.151732 -0.012950 0.017097 
4.725811 15.556126 -2.408110 -4.825040 -24.186731 3.911492 -7.036586 23.989595 -28.744277 -11.815859 12.582081 23.216858 -1.109075 3.510120 -13.288101 1.198874 0.226043 0.574979 -1.448666 -13.443650 7.125306 20.505211 -14.031134 21.633859 2.599065 -3.863528 -10.783888 0.449635 -0.901981 2.260598 0.158339 1.803263 -2.727950 -0.902126 -0.684932 -10.100992 0.465079 1.619535 -1.124859 -1.819140 -1.068155 1.012386 -32.097402 -34.900361 -1.206309 61.975183 -59.837115 -22.455137 -0.771038 -0.495460 0.690016 -7.133814 -0.004075 -0.016238 87.857017 27.752420 34.098514 -65.101368 54.902348 -27.788980 1.680846 -0.199113 -0.410587 7.145984 -0.011442 0.019734 
4.695186 15.553324 -2.417671 -4.793570 -23.777342 3.938570 -7.816837 24.828074 -30.001811 -11.808768 13.824172 23.408759 -1.793446 3.957083 -13.421743 1.080943 0.137198 0.235652 -2.266736 -13.840775 8.423628 22.859086 -14.496626 19.677876 1.990372 -3.001060 -11.414878 0.517828 -1.624895 4.255520 -1.037039 1.227001 -1.969174 -0.983887 -1.667866 -11.403854 0.907911 0.919966 -2.478332 -1.633903 -1.016257 0.727885 -33.576793 -34.555341 2.110765 62.973149 -60.651540 -23.001015 -0.663017 -0.097332 0.117456 -7.121705 -0.003797 -0.012085 87.051041 27.729863 35.365610 -64.314243 55.379119 -26.432579 1.500408 -0.285538 -0.333393 7.135089 -0.007972 0.019651 
4.664560 15.550523 -2.427211 -4.762252 -23.367880 3.965985 -8.863124 25.319431 -29.560096 -12.800886 13.877788 22.365227 -0.956254 4.378576 -14.978023 0.730965 -0.422614 -1.440052 -5.169615 -13.573460 9.778320 26.467958 -15.580153 19.945778 1.396445 -2.958254 -12.245383 0.820743 -1.427386 3.348259 -2.035693 1.781240 -2.014199 -0.769697 -1.793400 -12.094725 1.998990 1.034779 -3.677414 -1.514108 -0.889355 -0.059162 -35.906147 -34.093504 5.579448 65.283822 -61.868625 -22.847430 1.637961 -0.550925 -0.404072 -7.109192 -0.005102 -0.011362 86.981571 28.361840 35.740502 -64.218627 57.337512 -25.644659 1.428826 0.150167 -0.680055 7.121671 -0.008095 0.016764 
